<svg xmlns="http://www.w3.org/2000/svg" xmlns:xlink="http://www.w3.org/1999/xlink" viewBox="0 0 233.27 155.9"><defs><style>.cls-1{isolation:isolate;}.cls-15,.cls-2{opacity:0.5;}.cls-3{fill:#e8dbe0;}.cls-4{fill:#2599a0;}.cls-5{fill:#78e3b0;}.cls-36,.cls-6,.cls-69,.cls-7{fill:#fff;}.cls-6{opacity:0.42;}.cls-30,.cls-33,.cls-6,.cls-60,.cls-61,.cls-69,.cls-7{mix-blend-mode:screen;}.cls-7{opacity:0.21;}.cls-8{fill:url(#linear-gradient);}.cls-9{fill:url(#linear-gradient-2);}.cls-10{fill:#ffad97;}.cls-11{fill:url(#linear-gradient-3);}.cls-12{fill:#b2b2b2;}.cls-13{fill:#8c8c8c;}.cls-14{fill:url(#linear-gradient-4);}.cls-15,.cls-27,.cls-56,.cls-58,.cls-62{mix-blend-mode:multiply;}.cls-15{fill:url(#linear-gradient-5);}.cls-16{fill:#97a2d0;}.cls-17{fill:#747ec1;}.cls-18{fill:url(#linear-gradient-6);}.cls-19{fill:url(#linear-gradient-7);}.cls-20{fill:url(#linear-gradient-8);}.cls-21{fill:url(#linear-gradient-9);}.cls-22{fill:#3f3f5c;}.cls-23{fill:url(#linear-gradient-10);}.cls-24{fill:#3f3f3f;}.cls-25{fill:#999bc5;}.cls-26{fill:#2e3545;}.cls-27,.cls-30,.cls-33,.cls-56,.cls-61{opacity:0.3;}.cls-28{fill:url(#linear-gradient-11);}.cls-29{fill:#d59758;}.cls-30{fill:#7d62bf;}.cls-31{fill:#7a3d1c;}.cls-32{fill:url(#linear-gradient-12);}.cls-33,.cls-54{fill:#f8981c;}.cls-34{fill:#334d5c;}.cls-35{fill:#a6a6a6;}.cls-37{fill:#fb392e;}.cls-38{fill:#fecb15;}.cls-39{fill:#26a659;}.cls-40{fill:#e0e0e0;}.cls-41{fill:#e29616;}.cls-42{fill:#f19b0f;}.cls-43{fill:#17bb99;}.cls-44{fill:#fbdd82;}.cls-45{fill:#89c0c8;}.cls-46{fill:#38424d;}.cls-47{fill:#474e5e;}.cls-48{fill:#25b2c9;}.cls-49{fill:#0298ae;}.cls-50{fill:#dfb815;}.cls-51{fill:#f9392a;}.cls-52{fill:#f83a2a;}.cls-53{fill:url(#linear-gradient-13);}.cls-55,.cls-56{fill:#f8851c;}.cls-57{fill:#e3cce3;}.cls-58,.cls-61,.cls-63{fill:#d1bdd1;}.cls-58,.cls-62{opacity:0.4;}.cls-59{fill:#fafafa;}.cls-60{opacity:0.6;}.cls-64{fill:#d9b3d1;}.cls-65{fill:#debfde;}.cls-66{fill:#178c80;}.cls-67{fill:#52c7a3;}.cls-68{fill:#78c7c7;}.cls-69{opacity:0.25;}</style><linearGradient id="linear-gradient" x1="84" y1="91.34" x2="84" y2="95.71" gradientUnits="userSpaceOnUse"><stop offset="0.01" stop-color="#eb8517"/><stop offset="1" stop-color="#ffb038"/></linearGradient><linearGradient id="linear-gradient-2" x1="84" y1="93.52" x2="84" y2="89.36" xlink:href="#linear-gradient"/><linearGradient id="linear-gradient-3" x1="124.17" y1="151.85" x2="138.71" y2="151.85" gradientUnits="userSpaceOnUse"><stop offset="0" stop-color="#3d342b"/><stop offset="1" stop-color="#291c17"/></linearGradient><linearGradient id="linear-gradient-4" x1="73.03" y1="101.25" x2="158.77" y2="101.25" gradientUnits="userSpaceOnUse"><stop offset="0" stop-color="#e8d68c"/><stop offset="1" stop-color="#e8cc47"/></linearGradient><linearGradient id="linear-gradient-5" x1="72.98" y1="101.25" x2="95.31" y2="101.25" xlink:href="#linear-gradient-4"/><linearGradient id="linear-gradient-6" x1="143.51" y1="151.85" x2="158.05" y2="151.85" xlink:href="#linear-gradient-3"/><linearGradient id="linear-gradient-7" x1="154.85" y1="140.25" x2="154.85" y2="125.06" gradientUnits="userSpaceOnUse"><stop offset="0.01" stop-color="#444199"/><stop offset="1" stop-color="#2b2b7d"/></linearGradient><linearGradient id="linear-gradient-8" x1="140.47" y1="136.53" x2="148.84" y2="112.19" xlink:href="#linear-gradient-7"/><linearGradient id="linear-gradient-9" x1="168.89" y1="73.02" x2="161.59" y2="64.35" gradientUnits="userSpaceOnUse"><stop offset="0.01" stop-color="#f4a079"/><stop offset="1" stop-color="#f4b594"/></linearGradient><linearGradient id="linear-gradient-10" x1="177.08" y1="113.33" x2="165.69" y2="83.83" gradientUnits="userSpaceOnUse"><stop offset="0.01" stop-color="#c73669"/><stop offset="1" stop-color="#f2577e"/></linearGradient><linearGradient id="linear-gradient-11" x1="128.92" y1="99.53" x2="127.17" y2="97.39" xlink:href="#linear-gradient-9"/><linearGradient id="linear-gradient-12" x1="167.67" y1="104.19" x2="166.11" y2="120.54" gradientUnits="userSpaceOnUse"><stop offset="0.01" stop-color="#f8981c"/><stop offset="1" stop-color="#d4731c"/></linearGradient><linearGradient id="linear-gradient-13" x1="164.55" y1="82.79" x2="143.67" y2="94.18" gradientUnits="userSpaceOnUse"><stop offset="0.01" stop-color="#e6426b"/><stop offset="1" stop-color="#f2577e"/></linearGradient></defs><title>heroimage</title><g class="cls-1"><g id="Layer_2" data-name="Layer 2"><g id="Layer_1-2" data-name="Layer 1"><g class="cls-2"><path class="cls-3" d="M58.18,152.67h53.54a49.34,49.34,0,0,1,9-3.82c12.36-3.65,22.82.37,28.87,3.82h61.21a41.81,41.81,0,0,0,10.13-41c-3.85-13-11.74-17.78-15-28.71a41.6,41.6,0,0,1-.12-23.17l-.07-.07a41.76,41.76,0,0,0-52.89-47.9c-22.83,6.74-27.57,26-27.62,26a36,36,0,0,1-24.25,24c-12.22,3.62-20,.65-30,3.63a48.57,48.57,0,0,0-12.85,87.21Z"/><path class="cls-3" d="M104.73,52.47c7.62-4.6,10.39-14,6.19-20.93s-14.26-8-21.88-3.37-9.91,13-5.71,20S97.11,57.06,104.73,52.47Z"/><path class="cls-3" d="M212.45,80.09c2,6.26,8.18,9.89,13.91,8.1s8.21-8.82,6.25-15.09-7.61-9.39-13.34-7.6S210.49,73.83,212.45,80.09Z"/></g><path class="cls-4" d="M90.52,83.82l2.09,0A14.66,14.66,0,0,0,95,78.35l-1.64-.12,1.78-.62a18,18,0,0,0,.28-3.31,17.57,17.57,0,0,0-5.92,1.78l-.14,1.4-.28-1.17A11.26,11.26,0,0,0,84.41,81l.53,2.26L84,81.85A11.08,11.08,0,0,0,83.26,85c-.08,2.23,0,3.58,0,3.58h3.42a14.13,14.13,0,0,0,5.48-4.19Z"/><path class="cls-5" d="M83.93,86a7.8,7.8,0,0,0-1.09-3.3l-.5,1.06.16-1.54a8.82,8.82,0,0,0-3.84-2.91l-.1,1-.25-1.09a12.7,12.7,0,0,0-3-.74A12.1,12.1,0,0,0,76,82.72l.87.28-.74.07a10.12,10.12,0,0,0,2.63,3.72l1.71.1-1.11.4a9.36,9.36,0,0,0,2.13,1.25h2.43S84,87.58,83.93,86Z"/><path class="cls-6" d="M77.84,81c-.53-.51-1.65-1.69-1.65-1.69A19.85,19.85,0,0,1,78,80.7c4.43,4.18,5.35,7.63,5.39,7.79l-.17.05h-.19C83,88.12,81.88,84.87,77.84,81Z"/><path class="cls-7" d="M84.5,88.54h-.39a26,26,0,0,1,8.61-12.18,18,18,0,0,1,1.75-1.07s-1,.93-1.46,1.32A25.7,25.7,0,0,0,84.5,88.54Z"/><polygon class="cls-8" points="87.94 99.99 80.05 99.99 77.72 90.79 90.28 90.79 87.94 99.99"/><rect class="cls-9" x="76.7" y="88.31" width="14.6" height="3.5"/><polygon class="cls-10" points="137.75 146.69 137.75 150.74 133.61 150.74 133.61 146.48 137.75 146.69"/><path class="cls-11" d="M137.75,149.38a2.35,2.35,0,0,1,1,2v2.93H124.18s-.26-1.73,1.73-1.73a13.3,13.3,0,0,0,6.15-2,3,3,0,0,1,2.07-1.17Z"/><polygon class="cls-12" points="107.42 153.87 104.85 153.87 96.71 102.43 99.28 102.43 107.42 153.87"/><polygon class="cls-13" points="99.28 102.43 107.42 153.87 108.53 153.87 100.39 102.43 99.28 102.43"/><polygon class="cls-12" points="184.39 153.87 181.82 153.87 173.68 102.43 176.25 102.43 184.39 153.87"/><polygon class="cls-13" points="176.25 102.43 184.39 153.87 185.5 153.87 177.36 102.43 176.25 102.43"/><polygon class="cls-12" points="147.87 153.63 145.56 153.63 153.7 102.38 156.01 102.38 147.87 153.63"/><polygon class="cls-13" points="156.01 102.38 147.87 153.63 148.87 153.63 157.01 102.38 156.01 102.38"/><polygon class="cls-12" points="70.13 153.87 67.65 153.87 75.79 102.43 78.27 102.43 70.13 153.87"/><polygon class="cls-13" points="78.27 102.43 70.13 153.87 71.2 153.87 79.34 102.43 78.27 102.43"/><rect class="cls-14" x="73.03" y="99.67" width="85.74" height="3.16"/><rect class="cls-15" x="72.98" y="99.67" width="22.32" height="3.16"/><rect class="cls-16" x="123.84" y="91.06" width="6.18" height="7.56"/><rect class="cls-17" x="122.53" y="91.06" width="1.35" height="7.56"/><polygon class="cls-10" points="157.09 146.69 157.09 150.74 152.95 150.74 152.95 146.48 157.09 146.69"/><path class="cls-18" d="M157.09,149.38a2.35,2.35,0,0,1,1,2v2.93H143.52s-.27-1.73,1.73-1.73a13.3,13.3,0,0,0,6.14-2,3,3,0,0,1,2.08-1.17Z"/><path class="cls-19" d="M154.1,112c-6.84,3.42-3.68,28.81-1.84,35h5.79s1.75-18,1.75-22.23C159.8,117.65,154.1,112,154.1,112Z"/><path class="cls-20" d="M158.11,109.84S142,108.53,135.18,112s-3.68,28.81-1.84,35h5.78s1.76-18,1.76-22.23,3.55-2.77,4.21-3.42,14.16,1.27,16.4-1.85S158.11,109.84,158.11,109.84Z"/><path class="cls-21" d="M160,59.15s-.08,3.53-.08,4a6.39,6.39,0,0,1-1.35,2.48c-.44.4.08,1.18.65,1.22s.48.78.48,1.48c0,1.49-.09,6.15,4.71,3.23a5.93,5.93,0,0,1,.61,2.87l7.54-.78a7.41,7.41,0,0,1-.7-3.4C172,68.52,165.94,57.16,160,59.15Z"/><path class="cls-22" d="M159,55.66c2.87-1.46,11.33-3.49,13.29,1.66,0,0,2.2.44,2.1,3.39-.09,2.71-.75,10.11-4.24,10-3.66-.14-5.13-1.47-5.13-1.47s2.65-3.57.9-4.94c-.53-.42-1.1-.07-1.13.88s.09,5.32-.47,6.54a2.47,2.47,0,0,1-3.14,1.41c-2-.57-2-5.08-1.51-3.74a1.75,1.75,0,0,0,2.94.49c.83-.83,1.55-5.67,1.55-5.67,0-2.31-.69-5.54-4.21-5.05a9.78,9.78,0,0,1-2.09.39C156.73,59.63,156,57.21,159,55.66Z"/><path class="cls-23" d="M173,73s11,.19,11,14a269.86,269.86,0,0,1-2.24,30.39H162.58s-4.47-.66-4.47-7.23.66-17.9-.13-23.29-2.86-10.38,5.85-12.23A74.93,74.93,0,0,1,173,73Z"/><rect class="cls-24" x="116.32" y="98.44" width="17.23" height="1.23"/><rect class="cls-25" x="103.13" y="60.86" width="49.59" height="30.79" rx="1.58"/><path class="cls-26" d="M104.71,62.44V88h46.43V62.44Z"/><g class="cls-27"><path d="M145.09,121.25c.66-.66,14.16,1.27,16.4-1.85.88-1.22.54-3-.18-4.61-1.42,3-3,5-5,5H145.66a2.08,2.08,0,0,0-2.31,1.77C144.12,121.44,144.83,121.51,145.09,121.25Z"/><path d="M184,87c0-.3,0-.59,0-.87-4.83,0-13.23-.16-16.65,10.26-2.34,7.14-4.27,15.43-6.88,20a4.7,4.7,0,0,0,2.1,1h19.21A269.86,269.86,0,0,0,184,87Z"/></g><path class="cls-28" d="M132.64,94.89a51.09,51.09,0,0,0-6.14-.44,6.57,6.57,0,0,0-4,1.71c-1.22,1.1-2.5,2.2-1.71,2.46s1.27,0,2.11-.79a2,2,0,0,1,2.67.09c.53.61,2.63.61,3.91.57s2-.79,3.07-.13S132.64,94.89,132.64,94.89Z"/><path class="cls-10" d="M122.23,98.22a1.07,1.07,0,0,0,1.06.43c.62-.16,1.54-1.26,2.1-1.12s.2-.36.2-.36h-1.81C123.71,97.16,122.18,97.62,122.23,98.22Z"/><path class="cls-10" d="M124,98.09a.65.65,0,0,0,.61.51c.53,0,.76-.69,1.2-.62s.48-.26.48-.26l-1-.4A6.27,6.27,0,0,0,124,98.09Z"/><polygon class="cls-29" points="184.13 154.75 181.24 154.75 175.14 124.54 178.03 124.54 184.13 154.75"/><polygon class="cls-30" points="183.44 154.75 182.86 154.75 176.76 124.54 177.34 124.54 183.44 154.75"/><path class="cls-29" d="M182.8,154.31h0c-2.2,0-2.92,1.14-2.92,1.34s.2.25.43.25h5c.23,0,.43-.05.43-.25S185,154.31,182.8,154.31Z"/><polygon class="cls-29" points="159.98 154.75 162.87 154.75 168.97 124.54 166.08 124.54 159.98 154.75"/><polygon class="cls-30" points="160.68 154.75 161.26 154.75 167.36 124.54 166.78 124.54 160.68 154.75"/><path class="cls-29" d="M161.32,154.31h0c2.19,0,2.92,1.14,2.92,1.34s-.2.25-.44.25h-5c-.24,0-.43-.05-.43-.25S159.12,154.31,161.32,154.31Z"/><polygon class="cls-29" points="143.82 154.75 146.72 154.75 152.81 124.54 149.93 124.54 143.82 154.75"/><polygon class="cls-30" points="144.52 154.75 145.1 154.75 151.2 124.54 150.62 124.54 144.52 154.75"/><path class="cls-29" d="M145.16,154.31h0c2.2,0,2.92,1.14,2.92,1.34s-.2.25-.44.25h-5c-.24,0-.43-.05-.43-.25S143,154.31,145.16,154.31Z"/><polygon class="cls-29" points="167.88 154.75 164.99 154.75 158.89 124.54 161.78 124.54 167.88 154.75"/><polygon class="cls-30" points="167.18 154.75 166.6 154.75 160.5 124.54 161.08 124.54 167.18 154.75"/><path class="cls-29" d="M166.54,154.31h0c-2.19,0-2.91,1.14-2.91,1.34s.19.25.43.25h5c.24,0,.43-.05.43-.25S168.74,154.31,166.54,154.31Z"/><path class="cls-31" d="M175.88,125.6h0c3.35,0,4.45-1.75,4.45-2.06s-.3-.39-.66-.39h-7.6c-.36,0-.66.08-.66.39S172.54,125.6,175.88,125.6Z"/><path class="cls-31" d="M167.13,125.6h0c3.34,0,4.44-1.75,4.44-2.06s-.3-.39-.66-.39h-7.6c-.36,0-.65.08-.65.39S163.78,125.6,167.13,125.6Z"/><path class="cls-31" d="M151.35,125.6h0c3.35,0,4.44-1.75,4.44-2.06s-.29-.39-.65-.39h-7.6c-.36,0-.66.08-.66.39S148,125.6,151.35,125.6Z"/><path class="cls-31" d="M160.17,125.6h0c3.35,0,4.45-1.75,4.45-2.06s-.3-.39-.66-.39h-7.6c-.36,0-.66.08-.66.39S156.83,125.6,160.17,125.6Z"/><path class="cls-32" d="M189,109.8c0-6.44.52-13.38.52-16.09s-.08-7-4.91-7S171.4,86.52,168,97s-6,23.33-11,23.33H146.27a2.06,2.06,0,0,0-2.32,1.89c0,.92.7,1.84,2.72,1.84h27.62C180.61,124,189,122.91,189,109.8Z"/><path class="cls-33" d="M148.12,121.86h9.23c6.28,0,9.05-12.89,12.47-23.33s11.84-10.26,16.66-10.26a5.59,5.59,0,0,1,2.15.38,4.26,4.26,0,0,0-4-2c-4.82,0-13.24-.17-16.66,10.26s-6,23.33-11,23.33H146.27a2.06,2.06,0,0,0-2.32,1.89C144.58,121.77,144.33,121.86,148.12,121.86Z"/><rect class="cls-34" x="105.15" y="63.27" width="32.84" height="21.01"/><rect class="cls-35" x="105.15" y="63.27" width="32.84" height="2.6"/><rect class="cls-36" x="105.76" y="63.82" width="1.56" height="1.56"/><rect class="cls-36" x="110.4" y="63.82" width="19.95" height="1.56"/><polygon points="106.73 65.01 106.23 64.6 106.73 64.19 106.73 65.01"/><rect class="cls-36" x="108" y="63.82" width="1.56" height="1.56"/><polygon points="108.59 65.01 109.1 64.6 108.59 64.19 108.59 65.01"/><path class="cls-37" d="M133,64.58a.67.67,0,1,1-.67-.67A.67.67,0,0,1,133,64.58Z"/><path class="cls-38" d="M135.05,64.58a.68.68,0,1,1-.68-.67A.67.67,0,0,1,135.05,64.58Z"/><path class="cls-39" d="M137.14,64.58a.67.67,0,1,1-.67-.67A.67.67,0,0,1,137.14,64.58Z"/><rect class="cls-40" x="108.64" y="67.09" width="0.37" height="15.94"/><rect class="cls-40" x="107.15" y="67.58" width="0.62" height="0.62"/><rect class="cls-40" x="107.15" y="68.93" width="0.62" height="0.62"/><rect class="cls-40" x="107.15" y="70.28" width="0.62" height="0.62"/><rect class="cls-40" x="107.15" y="71.63" width="0.62" height="0.62"/><rect class="cls-40" x="107.15" y="72.98" width="0.62" height="0.61"/><rect class="cls-40" x="107.15" y="74.33" width="0.62" height="0.62"/><rect class="cls-40" x="107.15" y="75.68" width="0.62" height="0.62"/><rect class="cls-40" x="107.15" y="77.03" width="0.62" height="0.62"/><rect class="cls-40" x="107.15" y="78.38" width="0.62" height="0.62"/><rect class="cls-40" x="107.15" y="79.73" width="0.62" height="0.62"/><rect class="cls-40" x="107.15" y="81.08" width="0.62" height="0.62"/><path class="cls-36" d="M110.51,67.42l-.45.47a.09.09,0,0,0,0,.12l.43.45a.09.09,0,0,0,.12,0,.09.09,0,0,0,0-.06.14.14,0,0,0,0-.06l-.38-.39.39-.42a.05.05,0,0,0,0,0,.09.09,0,0,0,0-.07A.08.08,0,0,0,110.51,67.42Z"/><path class="cls-36" d="M112.62,67.41a.09.09,0,0,0,0,.07.05.05,0,0,0,0,0L113,68l-.38.39a.14.14,0,0,0,0,.06.09.09,0,0,0,0,.06.09.09,0,0,0,.12,0l.43-.45a.09.09,0,0,0,0-.12l-.45-.47A.08.08,0,0,0,112.62,67.41Z"/><path class="cls-36" d="M111.92,67.46l-.83.85a.08.08,0,0,0,0,.12.09.09,0,0,0,.12,0l.83-.85a.09.09,0,0,0,0-.12A.11.11,0,0,0,111.92,67.46Z"/><path class="cls-36" d="M110.51,82l-.45.48a.09.09,0,0,0,0,.12l.43.44a.07.07,0,0,0,.12,0,.07.07,0,0,0,0-.06.14.14,0,0,0,0-.06l-.38-.39.39-.41a.09.09,0,0,0,0-.06.11.11,0,0,0,0-.07A.08.08,0,0,0,110.51,82Z"/><path class="cls-36" d="M112.62,82a.11.11,0,0,0,0,.07.09.09,0,0,0,0,.06l.39.41-.38.39a.14.14,0,0,0,0,.06.07.07,0,0,0,0,.06.07.07,0,0,0,.12,0l.43-.44a.09.09,0,0,0,0-.12l-.45-.48A.08.08,0,0,0,112.62,82Z"/><path class="cls-36" d="M111.92,82.06l-.83.85a.08.08,0,0,0,0,.12.07.07,0,0,0,.12,0l.83-.84a.09.09,0,0,0-.13-.13Z"/><rect class="cls-41" x="109.4" y="68.83" width="2.8" height="0.55"/><rect class="cls-42" x="109.4" y="76.2" width="3.15" height="0.55"/><rect class="cls-42" x="109.4" y="81.13" width="2.15" height="0.56"/><rect class="cls-43" x="110.09" y="70.06" width="4.48" height="0.56"/><rect class="cls-44" x="110.09" y="77.46" width="4.1" height="0.55"/><rect class="cls-45" x="110.09" y="78.64" width="4.03" height="0.55"/><rect class="cls-43" x="110.09" y="79.88" width="2.16" height="0.55"/><rect class="cls-44" x="112.76" y="79.88" width="9.18" height="0.55"/><rect class="cls-44" x="114.59" y="78.64" width="6.68" height="0.55"/><rect class="cls-41" x="121.78" y="78.64" width="2.16" height="0.55"/><rect class="cls-45" x="124.9" y="77.46" width="4.29" height="0.55"/><rect class="cls-43" x="114.63" y="77.46" width="9.73" height="0.55"/><rect class="cls-44" x="115.04" y="70.06" width="2.57" height="0.56"/><rect class="cls-44" x="110.09" y="72.56" width="2.96" height="0.55"/><rect class="cls-43" x="113.54" y="72.56" width="4.81" height="0.56"/><rect class="cls-45" x="118.07" y="70.06" width="4.61" height="0.56"/><rect class="cls-45" x="110.09" y="71.33" width="5.11" height="0.55"/><rect class="cls-41" x="115.73" y="71.33" width="5" height="0.55"/><rect class="cls-43" x="121.22" y="71.33" width="3.49" height="0.55"/><rect class="cls-45" x="110.09" y="73.79" width="6.05" height="0.55"/><rect class="cls-44" x="116.61" y="73.79" width="3.23" height="0.55"/><rect class="cls-43" x="110.09" y="74.96" width="6.05" height="0.56"/><rect class="cls-45" x="116.61" y="74.96" width="5.61" height="0.56"/><rect class="cls-43" x="120.38" y="73.79" width="6.26" height="0.55"/><rect class="cls-43" x="112.74" y="68.83" width="1.45" height="0.55"/><rect class="cls-46" x="127.61" y="71" width="22.57" height="14.44"/><rect class="cls-47" x="127.61" y="71" width="22.57" height="1.79"/><path class="cls-37" d="M129.34,71.9a.46.46,0,0,1-.46.46.45.45,0,0,1-.46-.46.46.46,0,0,1,.46-.46A.47.47,0,0,1,129.34,71.9Z"/><path class="cls-38" d="M130.78,71.9a.47.47,0,0,1-.93,0,.47.47,0,0,1,.93,0Z"/><path class="cls-48" d="M132.22,71.9a.47.47,0,0,1-.93,0,.47.47,0,0,1,.93,0Z"/><rect class="cls-41" x="129.07" y="74.82" width="1.93" height="0.38"/><rect class="cls-42" x="129.07" y="79.89" width="2.17" height="0.38"/><rect class="cls-42" x="129.07" y="82.3" width="1.48" height="0.38"/><rect class="cls-49" x="129.54" y="75.66" width="3.08" height="0.38"/><rect class="cls-50" x="129.54" y="80.75" width="2.82" height="0.38"/><rect class="cls-36" x="129.54" y="81.56" width="2.77" height="0.38"/><rect class="cls-50" x="132.64" y="81.56" width="4.59" height="0.38"/><rect class="cls-51" x="137.58" y="81.56" width="1.48" height="0.38"/><rect class="cls-36" x="139.72" y="80.75" width="2.95" height="0.38"/><rect class="cls-49" x="132.67" y="80.75" width="6.69" height="0.38"/><rect class="cls-50" x="132.94" y="75.66" width="1.77" height="0.38"/><rect class="cls-50" x="129.54" y="77.38" width="2.04" height="0.38"/><rect class="cls-49" x="131.91" y="77.38" width="3.31" height="0.38"/><rect class="cls-36" x="135.03" y="75.66" width="3.16" height="0.38"/><rect class="cls-52" x="129.54" y="76.53" width="3.51" height="0.38"/><rect class="cls-41" x="133.42" y="76.53" width="3.43" height="0.38"/><rect class="cls-49" x="137.19" y="76.53" width="2.4" height="0.38"/><rect class="cls-52" x="129.54" y="78.23" width="4.16" height="0.38"/><rect class="cls-50" x="134.02" y="78.23" width="2.22" height="0.38"/><rect class="cls-49" x="129.54" y="79.03" width="4.16" height="0.38"/><rect class="cls-36" x="134.02" y="79.03" width="3.86" height="0.38"/><rect class="cls-49" x="136.61" y="78.23" width="4.3" height="0.38"/><rect class="cls-50" x="131.37" y="74.82" width="1" height="0.38"/><path class="cls-53" d="M161.93,87.57s4.86-6.27,1.75-9.38-5.86-1.65-9.12,3.85c-2.8,4.74-6,9.48-7.72,10.62s-13.5,1.49-13.5,1.49a2.54,2.54,0,0,0-1.4,2.54c0,2,.65,3,3.15,3h11.25A11.68,11.68,0,0,0,156,95.2C158.18,92.3,161.93,87.57,161.93,87.57Z"/><path class="cls-54" d="M107.14,98.5a1.25,1.25,0,0,1-1.24,1.24h-4.75a1.24,1.24,0,0,1-1.24-1.24V92.3h7.23Z"/><path class="cls-55" d="M109.19,93.36a3.05,3.05,0,0,0-2-.58v1a2,2,0,0,1,1.29.31,1.49,1.49,0,0,1,.39,1.33,2.73,2.73,0,0,1-1,2,1.12,1.12,0,0,1-.64.17v.88s0,.09,0,.14a2.23,2.23,0,0,0,1.28-.33A3.71,3.71,0,0,0,110,95.54,2.42,2.42,0,0,0,109.19,93.36Z"/><path class="cls-56" d="M107.14,92.78v1a2.14,2.14,0,0,1,.36,0v-1C107.38,92.79,107.26,92.77,107.14,92.78Zm0,5.72s0,.09,0,.14a2,2,0,0,0,.35,0,.69.69,0,0,0,0-.13v-.93a1.49,1.49,0,0,1-.36.05Z"/><path class="cls-33" d="M100.89,99.71a1.09,1.09,0,0,0,.26,0h1.09V92.3h-1.35Z"/><path class="cls-36" d="M103.1,86.07a.25.25,0,0,0,0,.5h4.69a.76.76,0,0,1,.75.75v.22a.75.75,0,0,1-.75.75H100c-.7,0-1.25.4-1.25.92s.55.91,1.25.91h2.25a.85.85,0,0,1,.55.19.48.48,0,0,1,.2.38v.81a.25.25,0,0,0,.5,0v-.81a1,1,0,0,0-.39-.77,1.34,1.34,0,0,0-.86-.3H100c-.43,0-.75-.21-.75-.41s.32-.42.75-.42h7.75A1.26,1.26,0,0,0,109,87.54v-.22a1.25,1.25,0,0,0-1.25-1.25Z"/><path class="cls-57" d="M179.32,26.8A11.33,11.33,0,1,1,168,15.47,11.32,11.32,0,0,1,179.32,26.8Z"/><path class="cls-58" d="M176.94,26.8A8.95,8.95,0,1,1,168,17.85,9,9,0,0,1,176.94,26.8Z"/><path class="cls-59" d="M176,26.8a8,8,0,1,1-8-8A8,8,0,0,1,176,26.8Z"/><g class="cls-60"><path class="cls-61" d="M164.85,17.25a.79.79,0,0,1-.55.89,6.38,6.38,0,0,0-2.13,1.23.8.8,0,0,1-1,0h0a.73.73,0,0,1,.11-1.11,7.76,7.76,0,0,1,2.61-1.51.74.74,0,0,1,1,.47Z"/></g><g class="cls-62"><path class="cls-63" d="M173.75,23.54l-5.94,3a.37.37,0,1,0,.32.66l5.94-3a.36.36,0,0,0,.16-.49A.35.35,0,0,0,173.75,23.54Z"/></g><g class="cls-62"><path class="cls-63" d="M167.65,22.41l0,4.15a.36.36,0,1,0,.72,0l0-4.16a.37.37,0,0,0-.37-.36A.36.36,0,0,0,167.65,22.41Z"/></g><path class="cls-64" d="M167.43,25.68a1.25,1.25,0,1,0,1.11,2.23,1.25,1.25,0,0,0-1.11-2.23Z"/><path class="cls-57" d="M167.69,26.2a.66.66,0,1,1,.59,1.19.66.66,0,0,1-.89-.3A.66.66,0,0,1,167.69,26.2Z"/><rect class="cls-65" x="65.07" y="49.85" width="3.31" height="16.15"/><rect class="cls-57" x="61.33" y="48.32" width="3.83" height="17.69"/><rect class="cls-65" x="72.01" y="52.63" width="3.31" height="13.37"/><rect class="cls-57" x="68.28" y="48.32" width="3.83" height="17.69"/><rect class="cls-65" x="78.34" y="49.85" width="3.31" height="16.15"/><rect class="cls-57" x="74.6" y="48.32" width="3.84" height="17.69"/><rect class="cls-65" x="85.31" y="50.92" width="3.28" height="15.11" transform="translate(-8.03 14.22) rotate(-8.94)"/><rect class="cls-57" x="81.46" y="48.32" width="3.83" height="17.69" transform="translate(-7.87 13.65) rotate(-8.94)"/><rect class="cls-57" x="57.54" y="65.33" width="37.29" height="3.83"/><rect class="cls-64" x="88.5" y="65.33" width="6.33" height="3.83"/><path class="cls-64" d="M61.33,63h3.83V61.64H61.33Z"/><path class="cls-64" d="M68.28,55.65h3.83V53.93H68.28Zm0-2.93v1h3.83v-1Z"/><path class="cls-64" d="M74.6,61h3.84V59.25H74.6Zm0-2.93v1h3.84V58Z"/><path class="cls-57" d="M142.29,40.33v-.09c0-6.4-6-11.59-13.42-11.59s-13.41,5.19-13.41,11.59v.09Z"/><path class="cls-57" d="M125.75,40.78v0a3.13,3.13,0,1,0,6.25,0v0Z"/><rect class="cls-57" x="128.62" width="0.5" height="29.67"/><path class="cls-66" d="M207.38,43.42H188a3,3,0,0,0-3,3V63.81l-1.33,1.52-.55,2.57h2c.61-.19,3.39-5.82,6.62-5.82h15.59a3,3,0,0,0,3-3V46.42A3,3,0,0,0,207.38,43.42Z"/><path class="cls-43" d="M208.38,59.08a3,3,0,0,1-3,3H189.79c-3.66,0-6.75,7.24-6.75,5.58V46.42a3,3,0,0,1,3-3h19.34a3,3,0,0,1,3,3Z"/><path class="cls-36" d="M192.53,54.75V56l-4.91-2.5V52.39l4.91-2.48v1.22L189,52.94Z"/><path class="cls-36" d="M193.93,56.54l2.85-7.41h.95l-2.85,7.41Z"/><path class="cls-36" d="M199,51.13V49.9l4.91,2.49v1.1L199,56V54.75l3.5-1.81Z"/><rect class="cls-3" x="211.13" y="99.1" width="12.25" height="4.81" rx="0.62"/><rect class="cls-3" x="31.79" y="88.43" width="12.25" height="4.81" rx="0.62"/><rect class="cls-3" x="45.42" y="88.43" width="12.25" height="4.81" rx="0.62"/><rect class="cls-3" x="59.04" y="88.43" width="12.25" height="4.81" rx="0.62"/><rect class="cls-3" x="38.17" y="94.68" width="12.25" height="4.81" rx="0.62"/><rect class="cls-3" x="51.79" y="94.68" width="12.25" height="4.81" rx="0.62"/><rect class="cls-3" x="198.04" y="105.26" width="12.25" height="4.81" rx="0.62"/><rect class="cls-3" x="138.42" y="45.97" width="12.25" height="4.81" rx="0.62"/><rect class="cls-3" x="151.67" y="45.97" width="12.25" height="4.81" rx="0.62"/><path class="cls-67" d="M39.31,139.54l-5.52-.14a38.34,38.34,0,0,1-6.31-14.28l4.33-.3-4.69-1.64a47.38,47.38,0,0,1-.74-8.71A46.3,46.3,0,0,1,42,119.15l.38,3.68.73-3.07A29.72,29.72,0,0,1,55.38,132.2L54,138.13l2.42-3.79a30.06,30.06,0,0,1,2,8.19c.21,5.87,0,9.42,0,9.42h-9a37,37,0,0,1-14.43-11Z"/><path class="cls-68" d="M56.65,145.26a20.61,20.61,0,0,1,2.86-8.68l1.32,2.79-.43-4.05a23.56,23.56,0,0,1,10.11-7.66l.26,2.5.69-2.87a32.87,32.87,0,0,1,7.94-2,31.51,31.51,0,0,1-1.9,11.3l-2.29.73,2,.19a26.61,26.61,0,0,1-6.93,9.8l-4.51.24,2.93,1.07A23.75,23.75,0,0,1,63,152H56.65S56.5,149.43,56.65,145.26Z"/><path class="cls-69" d="M72.67,132.16c1.41-1.34,4.35-4.44,4.35-4.44a51.57,51.57,0,0,0-4.87,3.61c-11.65,11-14.09,20.08-14.2,20.5l.46.12h.5C59.24,150.85,62,142.29,72.67,132.16Z"/><path class="cls-7" d="M55.14,152h1a68.41,68.41,0,0,0-22.67-32,43.74,43.74,0,0,0-4.61-2.82s2.54,2.44,3.85,3.48A67.45,67.45,0,0,1,55.14,152Z"/><path class="cls-3" d="M67,152.39a.44.44,0,0,1-.44.44H46.19a.44.44,0,0,1-.44-.44h0a.44.44,0,0,1,.44-.44H66.56a.44.44,0,0,1,.44.44Z"/><path class="cls-57" d="M48.83,46a.75.75,0,0,1-.74.75H30.45a.75.75,0,0,1-.74-.75h0a.74.74,0,0,1,.74-.74H48.09a.74.74,0,0,1,.74.74Z"/><path class="cls-57" d="M9.37,17.37a.74.74,0,0,1-.74.74H.74A.74.74,0,0,1,0,17.37H0a.75.75,0,0,1,.74-.75H8.63a.75.75,0,0,1,.74.75Z"/><path class="cls-57" d="M15.5,17.37a.74.74,0,0,1-.75.74H12a.74.74,0,0,1-.74-.74h0a.75.75,0,0,1,.74-.75h2.76a.75.75,0,0,1,.75.75Z"/><path class="cls-57" d="M55.75,46a.75.75,0,0,1-.75.75H51.37a.75.75,0,0,1-.74-.75h0a.74.74,0,0,1,.74-.74H55a.74.74,0,0,1,.75.74Z"/></g></g></g></svg>